<svg version="1.1" xmlns="http://www.w3.org/2000/svg" viewBox="0 0 566 250" width="1132" height="500">
  <!-- svg-source:excalidraw -->
  
  <defs>
    <style class="style-fonts">
      @font-face {
        font-family: "Virgil";
        src: url("https://excalidraw.com/Virgil.woff2");
      }
      @font-face {
        font-family: "Cascadia";
        src: url("https://excalidraw.com/Cascadia.woff2");
      }
    </style>
    
  </defs>
  <g stroke-linecap="round" transform="translate(15 165) rotate(0 8.5 8.5)"><path d="M7.96 -0.08 C9.67 -0.3, 12.07 0.56, 13.53 1.66 C14.99 2.75, 16.31 4.74, 16.72 6.5 C17.13 8.26, 16.75 10.59, 15.97 12.22 C15.18 13.85, 13.63 15.54, 12 16.28 C10.36 17.01, 7.91 17.16, 6.16 16.65 C4.41 16.14, 2.53 14.76, 1.5 13.24 C0.46 11.72, -0.23 9.35, -0.05 7.53 C0.12 5.71, 1.2 3.56, 2.55 2.33 C3.9 1.1, 7.1 0.49, 8.05 0.16 C9 -0.17, 8.21 0.26, 8.23 0.34 M7.95 0.04 C9.67 -0.23, 12.29 0.59, 13.73 1.63 C15.17 2.68, 16.17 4.54, 16.59 6.32 C17.02 8.1, 17.05 10.67, 16.3 12.32 C15.55 13.97, 13.79 15.44, 12.1 16.21 C10.41 16.98, 7.92 17.38, 6.16 16.92 C4.4 16.46, 2.57 14.98, 1.52 13.43 C0.48 11.88, -0.32 9.43, -0.11 7.63 C0.1 5.83, 1.42 3.94, 2.79 2.63 C4.15 1.31, 7.26 0.16, 8.09 -0.26 C8.92 -0.67, 7.82 -0.1, 7.77 0.13" stroke="#868e96" stroke-width="2" fill="none"></path></g><g stroke-linecap="round" transform="translate(10 182) rotate(0 13 13)"><path d="M6.5 0 C10.29 0.07, 13.71 -0.05, 19.5 0 M6.5 0 C10.12 0, 14.12 -0.03, 19.5 0 M19.5 0 C24.04 -0.04, 25.88 2.35, 26 6.5 M19.5 0 C24.24 0.37, 26.49 2.58, 26 6.5 M26 6.5 C25.82 11.04, 26.3 16.08, 26 19.5 M26 6.5 C26.02 9.3, 26.07 11.89, 26 19.5 M26 19.5 C26.05 24.28, 23.67 25.82, 19.5 26 M26 19.5 C26.06 23.46, 23.98 25.71, 19.5 26 M19.5 26 C16.38 25.93, 12.65 25.93, 6.5 26 M19.5 26 C16.02 25.9, 12.71 25.98, 6.5 26 M6.5 26 C2.27 25.83, 0.12 23.85, 0 19.5 M6.5 26 C2.34 26.24, -0.46 23.69, 0 19.5 M0 19.5 C-0.22 15.12, 0.14 10.16, 0 6.5 M0 19.5 C0.04 14.29, 0.09 9.49, 0 6.5 M0 6.5 C0.38 2.16, 2.6 -0.13, 6.5 0 M0 6.5 C0.51 2.55, 1.66 0.16, 6.5 0" stroke="#868e96" stroke-width="2" fill="none"></path></g><g stroke-linecap="round" transform="translate(155 155) rotate(0 85 42.5)"><path d="M21.25 0 C48.39 0, 75.54 0, 148.75 0 M21.25 0 C70.07 0, 118.89 0, 148.75 0 M148.75 0 C162.92 0, 170 7.08, 170 21.25 M148.75 0 C162.92 0, 170 7.08, 170 21.25 M170 21.25 C170 34.02, 170 46.8, 170 63.75 M170 21.25 C170 37.58, 170 53.92, 170 63.75 M170 63.75 C170 77.92, 162.92 85, 148.75 85 M170 63.75 C170 77.92, 162.92 85, 148.75 85 M148.75 85 C115.51 85, 82.26 85, 21.25 85 M148.75 85 C111.54 85, 74.33 85, 21.25 85 M21.25 85 C7.08 85, 0 77.92, 0 63.75 M21.25 85 C7.08 85, 0 77.92, 0 63.75 M0 63.75 C0 50.4, 0 37.05, 0 21.25 M0 63.75 C0 50.33, 0 36.91, 0 21.25 M0 21.25 C0 7.08, 7.08 0, 21.25 0 M0 21.25 C0 7.08, 7.08 0, 21.25 0" stroke="#868e96" stroke-width="2" fill="none"></path></g><g transform="translate(160.2750015258789 174.5) rotate(0 79.7249984741211 23)"><text x="79.7249984741211" y="0" font-family="Helvetica, Segoe UI Emoji" font-size="20px" fill="#868e96" text-anchor="middle" style="white-space: pre;" direction="ltr" dominant-baseline="text-before-edge">App Microservice </text><text x="79.7249984741211" y="23" font-family="Helvetica, Segoe UI Emoji" font-size="20px" fill="#868e96" text-anchor="middle" style="white-space: pre;" direction="ltr" dominant-baseline="text-before-edge">(Gateway)</text></g><g stroke-linecap="round"><g transform="translate(49 197.7178890327628) rotate(0 48.88602802258512 -0.00834509469200384)"><path d="M0.01 0.05 C16.35 0.09, 81.62 0.12, 97.94 0.11 M-0.17 -0.05 C16.16 -0.05, 81.4 -0.16, 97.79 -0.12" stroke="#868e96" stroke-width="2" fill="none"></path></g><g transform="translate(49 197.7178890327628) rotate(0 48.88602802258512 -0.00834509469200384)"><path d="M69.6 10.14 C75.93 7.75, 82.12 5.41, 97.79 -0.12 M69.6 10.14 C77.38 7.29, 85.11 4.53, 97.79 -0.12" stroke="#868e96" stroke-width="2" fill="none"></path></g><g transform="translate(49 197.7178890327628) rotate(0 48.88602802258512 -0.00834509469200384)"><path d="M69.6 -10.39 C75.9 -8.24, 82.1 -6.06, 97.79 -0.12 M69.6 -10.39 C77.39 -7.63, 85.12 -4.78, 97.79 -0.12" stroke="#868e96" stroke-width="2" fill="none"></path></g></g><mask></mask><g transform="translate(62 153.65294327764684) rotate(0 19.924999237060547 17.67352836117658)"><text x="19.924999237060547" y="0" font-family="Helvetica, Segoe UI Emoji" font-size="15.368285531457898px" fill="#868e96" text-anchor="middle" style="white-space: pre;" direction="ltr" dominant-baseline="text-before-edge">REST</text><text x="19.924999237060547" y="17.673528361176583" font-family="Helvetica, Segoe UI Emoji" font-size="15.368285531457898px" fill="#868e96" text-anchor="middle" style="white-space: pre;" direction="ltr" dominant-baseline="text-before-edge">API</text></g><g stroke-linecap="round" transform="translate(358 10) rotate(0 99 42.5)"><path d="M21.25 0 C57.84 2.48, 95.61 1.01, 176.75 0 M21.25 0 C54.33 -0.21, 86.84 0.31, 176.75 0 M176.75 0 C191.61 1.7, 199.58 5.17, 198 21.25 M176.75 0 C189.56 2.28, 196.05 8.55, 198 21.25 M198 21.25 C199.3 38.46, 197.44 54.75, 198 63.75 M198 21.25 C197.37 37.15, 198.15 52.99, 198 63.75 M198 63.75 C199.55 76.18, 189.64 85.67, 176.75 85 M198 63.75 C196.83 76.18, 191.69 86.15, 176.75 85 M176.75 85 C132.66 85.89, 89.58 83.85, 21.25 85 M176.75 85 C126.3 84.8, 77.68 84.79, 21.25 85 M21.25 85 C6.22 83.37, -1.9 78.55, 0 63.75 M21.25 85 C8.76 83.75, 2.19 79.03, 0 63.75 M0 63.75 C0.41 49.64, 1.37 31.51, 0 21.25 M0 63.75 C-0.53 55.17, 0.5 45.2, 0 21.25 M0 21.25 C-1.28 8, 8.83 1.18, 21.25 0 M0 21.25 C0.4 7.65, 8.84 0.14, 21.25 0" stroke="#868e96" stroke-width="2" fill="none"></path></g><g transform="translate(388.3916702270508 29.5) rotate(0 68.60832977294922 23)"><text x="68.60832977294922" y="0" font-family="Helvetica, Segoe UI Emoji" font-size="20px" fill="#868e96" text-anchor="middle" style="white-space: pre;" direction="ltr" dominant-baseline="text-before-edge">AI Microservice</text><text x="68.60832977294922" y="23" font-family="Helvetica, Segoe UI Emoji" font-size="20px" fill="#868e96" text-anchor="middle" style="white-space: pre;" direction="ltr" dominant-baseline="text-before-edge">(TensorflowJs)</text></g><g stroke-linecap="round"><g transform="translate(341 194.48803827751198) rotate(0 46.396406938507994 -40.198027817475406)"><path d="M0.59 -0.5 C9.56 -3.08, 38.82 -3.29, 53.88 -16.52 C68.94 -29.75, 84.54 -69.57, 90.95 -79.9 M-0.56 -1.81 C8.24 -4.18, 37.21 -2.69, 52.86 -15.52 C68.52 -28.35, 86.7 -67.96, 93.35 -78.79" stroke="#868e96" stroke-width="2" fill="none"></path></g><g transform="translate(341 194.48803827751198) rotate(0 46.396406938507994 -40.198027817475406)"><path d="M88.88 -49.13 C89.66 -58.37, 90.14 -68.74, 93.35 -78.79 M88.88 -49.13 C90.76 -58.01, 90.57 -63.96, 93.35 -78.79" stroke="#868e96" stroke-width="2" fill="none"></path></g><g transform="translate(341 194.48803827751198) rotate(0 46.396406938507994 -40.198027817475406)"><path d="M70.86 -58.94 C77.04 -65.29, 82.99 -72.68, 93.35 -78.79 M70.86 -58.94 C77.56 -65.37, 82.17 -68.7, 93.35 -78.79" stroke="#868e96" stroke-width="2" fill="none"></path></g></g><mask></mask><g stroke-linecap="round"><g transform="translate(398.199804858962 106.45400867871939) rotate(0 -31.75240115069124 27.924444922722742)"><path d="M1.16 -0.98 C-6.87 2.44, -38.26 11.54, -49.06 21.03 C-59.86 30.53, -61.14 50.19, -63.65 56.01 M0.31 1.12 C-7.8 4.17, -39.12 10.17, -49.95 19.46 C-60.79 28.74, -62.27 50.65, -64.67 56.83" stroke="#868e96" stroke-width="2" fill="none"></path></g><g transform="translate(398.199804858962 106.45400867871939) rotate(0 -31.75240115069124 27.924444922722742)"><path d="M-66.87 37.18 C-67.88 41.85, -64.06 45.41, -64.67 56.83 M-66.87 37.18 C-67.35 41.09, -66.98 46.84, -64.67 56.83" stroke="#868e96" stroke-width="2" fill="none"></path></g><g transform="translate(398.199804858962 106.45400867871939) rotate(0 -31.75240115069124 27.924444922722742)"><path d="M-53.73 40.37 C-57.78 44.43, -56.99 47.25, -64.67 56.83 M-53.73 40.37 C-57.08 43.46, -59.6 48.51, -64.67 56.83" stroke="#868e96" stroke-width="2" fill="none"></path></g></g><mask></mask><g transform="translate(349.6416664123535 136) rotate(0 26.358333587646484 11.5)"><text x="26.358333587646484" y="0" font-family="Helvetica, Segoe UI Emoji" font-size="20px" fill="#868e96" text-anchor="middle" style="white-space: pre;" direction="ltr" dominant-baseline="text-before-edge">gRPC</text></g></svg>